<svg width="31" height="35" viewBox="0 0 31 35" fill="none" xmlns="http://www.w3.org/2000/svg">
<path d="M15.3716 17.4422L0.954764 33.0687L0.515938 33.5491C0.243119 33.1459 0.0592641 32.6655 0.0177792 32.1318C0.00592641 32.037 0 31.942 0 31.8472V3.03127C0 2.38495 0.195708 1.80375 0.515938 1.32916L15.3716 17.4422Z" fill="#3A9BC8"/>
<path d="M21.8535 10.4087L15.3716 17.4422L0.51593 1.32913C1.35802 0.0956872 3.07784 -0.432035 4.53676 0.410059L21.8535 10.4087Z" fill="#9BCD83"/>
<path d="M30.9983 17.5251C30.9746 18.5097 30.4705 19.4941 29.492 20.0574L21.8536 24.4696L15.3716 17.4422L21.8536 10.4087L26.6572 13.1842L29.492 14.8209C30.5298 15.42 31.0339 16.4755 30.9983 17.5251Z" fill="#EEB84C"/>
<path d="M0.51709 33.5484C1.35959 34.7824 3.07832 35.3084 4.53451 34.4677L21.8511 24.4699L15.3691 17.4394L0.51709 33.5484Z" fill="#B43F70"/>
<path opacity="0.2" d="M30.9309 16.7879C30.7638 16.0033 30.2849 15.2786 29.4919 14.8209L26.6572 13.1842L21.8535 10.4087L4.53677 0.41009C3.07785 -0.432005 1.35803 0.0957177 0.515938 1.32916C0.195708 1.80375 0 2.38495 0 3.03126V19.6334C2.4987 19.8455 5.05625 19.9567 7.66012 19.9567C10.9288 19.9567 14.1213 19.7766 17.2185 19.4454L15.3775 17.4486L17.2193 19.4454C22.0699 18.927 26.6734 18.0211 30.9309 16.7879Z" fill="white"/>
</svg>
