<svg width="50" height="50" viewBox="0 0 50 50" fill="none" xmlns="http://www.w3.org/2000/svg">
<path fill-rule="evenodd" clip-rule="evenodd" d="M15.6995 50H34.3042C35.2668 50 36.0484 49.1803 36.0484 48.1707C36.0484 47.1611 35.2668 46.3414 34.3042 46.3414H15.6995C14.7369 46.3414 13.9553 47.1611 13.9553 48.1707C13.9553 49.1803 14.7369 50 15.6995 50ZM1.74602 30.4878H43.6064C44.5691 30.4878 45.3506 29.6681 45.3506 28.6585C45.3506 27.6489 44.5691 26.8292 43.6064 26.8292H1.74602C0.783393 26.8292 0.00183105 27.6489 0.00183105 28.6585C0.00183105 29.6681 0.783393 30.4878 1.74602 30.4878Z" fill="#BB2A2F"/>
<path fill-rule="evenodd" clip-rule="evenodd" d="M50.0018 11.5853C50.0018 5.18692 45.0561 0 38.9553 0C30.8492 0 19.1545 0 11.0484 0C4.94756 0 0.00188687 5.18692 0.00183105 11.5853C0.00183105 17.5445 0.00183105 25.1384 0.00183105 31.0976C0.00188687 37.496 4.94756 42.6829 11.0484 42.6829C19.1545 42.6829 30.8492 42.6829 38.9553 42.6829C45.0561 42.6829 50.0018 37.496 50.0018 31.0976V11.5853ZM46.5135 11.5853V31.0975C46.5134 35.4755 43.1295 39.0244 38.9553 39.0244C30.8492 39.0244 19.1545 39.0244 11.0484 39.0244C6.87414 39.0244 3.49031 35.4755 3.4902 31.0977C3.4902 31.0975 3.4902 11.5854 3.4902 11.5854C3.49031 7.20743 6.87414 3.65854 11.0484 3.65854C19.1545 3.65854 30.8492 3.65854 38.9553 3.65854C43.1295 3.65854 46.5134 7.20743 46.5135 11.5853ZM25.0018 32.7134C26.0207 32.7134 26.8478 33.5808 26.8478 34.6494C26.8478 35.7179 26.0207 36.5854 25.0018 36.5854C23.983 36.5854 23.1559 35.7179 23.1559 34.6494C23.1559 33.5808 23.983 32.7134 25.0018 32.7134Z" fill="#BB2A2F"/>
</svg>
