<svg xmlns="http://www.w3.org/2000/svg" width="56" height="56" viewBox="0 0 56 56" fill="none">
  <path d="M53.0005 28V43.625C53.0005 48.8028 41.8076 53 28.0005 53C14.1934 53 3.00049 48.8028 3.00049 43.625V28M53.0005 28V12.375M53.0005 28C53.0005 33.1778 41.8076 37.375 28.0005 37.375C14.1934 37.375 3.00049 33.1778 3.00049 28M3.00049 28V12.375M53.0005 12.375C53.0005 7.19734 41.8076 3 28.0005 3C14.1934 3 3.00049 7.19734 3.00049 12.375M53.0005 12.375C53.0005 17.5527 41.8076 21.75 28.0005 21.75C14.1934 21.75 3.00049 17.5527 3.00049 12.375" stroke="#BB2A2F" stroke-width="5" stroke-linecap="round" stroke-linejoin="round"/>
</svg>