<svg width="45" height="45" viewBox="0 0 45 45" fill="none" xmlns="http://www.w3.org/2000/svg">
<path d="M5 0H40C41.3261 0 42.5979 0.526784 43.5355 1.46447C44.4732 2.40215 45 3.67392 45 5V40C45 41.3261 44.4732 42.5979 43.5355 43.5355C42.5979 44.4732 41.3261 45 40 45H5C3.67392 45 2.40215 44.4732 1.46447 43.5355C0.526784 42.5979 0 41.3261 0 40V5C0 3.67392 0.526784 2.40215 1.46447 1.46447C2.40215 0.526784 3.67392 0 5 0ZM37.5 5H31.25C28.9294 5 26.7038 5.92187 25.0628 7.56282C23.4219 9.20376 22.5 11.4294 22.5 13.75V20H17.5V27.5H22.5V45H30V27.5H37.5V20H30V15C30 14.337 30.2634 13.7011 30.7322 13.2322C31.2011 12.7634 31.837 12.5 32.5 12.5H37.5V5Z" fill="#BB2A2F"/>
</svg>
